<svg width="62" height="62" viewBox="0 0 62 62" fill="none" xmlns="http://www.w3.org/2000/svg">
<path d="M18.6 31C24.5966 31 29.45 26.1466 29.45 20.15C29.45 14.1535 24.5966 9.30005 18.6 9.30005C12.6034 9.30005 7.75 14.1535 7.75 20.15C7.75 26.1466 12.6034 31 18.6 31ZM26.04 34.1H25.2359C23.2209 35.0688 20.9831 35.6501 18.6 35.6501C16.2169 35.6501 13.9887 35.0688 11.9641 34.1H11.16C4.99875 34.1 0 39.0988 0 45.2601V48.0501C0 50.6172 2.08281 52.7001 4.65 52.7001H32.55C35.1172 52.7001 37.2 50.6172 37.2 48.0501V45.2601C37.2 39.0988 32.2012 34.1 26.04 34.1ZM46.5 31C51.6344 31 55.8 26.8344 55.8 21.7C55.8 16.5657 51.6344 12.4 46.5 12.4C41.3656 12.4 37.2 16.5657 37.2 21.7C37.2 26.8344 41.3656 31 46.5 31ZM51.15 34.1H50.7819C49.4353 34.5651 48.0112 34.8751 46.5 34.8751C44.9887 34.8751 43.5647 34.5651 42.2181 34.1H41.85C39.8737 34.1 38.0525 34.6716 36.4541 35.5919C38.8178 38.1397 40.3 41.5207 40.3 45.2601V48.9801C40.3 49.1932 40.2516 49.3966 40.2419 49.6001H57.35C59.9172 49.6001 62 47.5172 62 44.9501C62 38.9535 57.1466 34.1 51.15 34.1Z" fill="#3F3D3B"/>
</svg>
