<svg width="339" height="339" viewBox="0 0 339 339" fill="none" xmlns="http://www.w3.org/2000/svg">
<path fill-rule="evenodd" clip-rule="evenodd" d="M327.281 193H269.293C258.671 238.283 218.023 272 169.5 272C120.977 272 80.329 238.283 69.7066 193H11.7191C23.0815 269.947 89.3945 329 169.5 329C249.605 329 315.918 269.947 327.281 193ZM327.425 147H269.523C259.268 101.214 218.38 67 169.5 67C120.62 67 79.7321 101.214 69.4773 147H11.5746C22.5078 69.5649 89.0478 10 169.5 10C249.952 10 316.492 69.5649 327.425 147ZM169.5 339C263.112 339 339 263.112 339 169.5C339 75.8877 263.112 0 169.5 0C75.8877 0 0 75.8877 0 169.5C0 263.112 75.8877 339 169.5 339ZM73.9916 249.13L77.7874 246.212L64.5558 229.003L60.76 231.921L65.4997 238.086L50.4593 249.65L54.2335 254.558L69.2739 242.994L73.9916 249.13ZM78.7876 247.208L63.159 265.104L77.4491 277.583L80.5985 273.977L70.9724 265.571L74.1691 261.91L81.5447 268.351L84.5046 264.961L77.1291 258.521L80.3022 254.887L89.5758 262.985L92.7252 259.379L78.7876 247.208ZM112.316 272.405L99.6118 292.483L93.8013 288.807L94.4365 274L94.8018 270.056L94.7713 270.037L92.5447 273.826L86.1349 283.956L81.5108 281.03L94.2148 260.952L100.025 264.628L99.3902 279.435L99.0249 283.379L99.0554 283.398L101.282 279.609L107.692 269.479L112.316 272.405ZM127.949 303.908L136.16 281.612L131.025 279.721L126.882 290.97L125.499 295.141L125.466 295.129L124.996 291.196L122.512 276.585L116.06 274.209L107.848 296.505L112.983 298.396L117.126 287.147L118.509 282.976L118.543 282.988L119.013 286.921L121.496 301.532L127.949 303.908ZM146.324 283.25L143.262 306.811L137.122 306.013L140.184 282.452L146.324 283.25ZM215.397 302.331L206.087 280.471L200.39 282.897L209.7 304.757L215.397 302.331ZM220.982 274.49C223.566 273.331 225.845 273.045 227.818 273.633C229.804 274.189 231.249 275.474 232.152 277.489C233.145 279.701 233.189 281.706 232.287 283.505C231.887 284.302 231.323 285.035 230.594 285.706L240.167 291.925L233.927 294.725L225.746 288.886L222.361 290.404L225.912 298.32L220.361 300.811L210.636 279.132L220.982 274.49ZM224.57 284.599C225.665 284.108 226.388 283.521 226.739 282.837C227.09 282.154 227.05 281.33 226.617 280.367C226.195 279.425 225.612 278.858 224.868 278.666C224.124 278.473 223.205 278.623 222.11 279.114L218.102 280.912L220.563 286.397L224.57 284.599ZM163.386 285.115C161.679 284.488 159.722 284.22 157.516 284.311C155.382 284.398 153.561 284.809 152.054 285.543C150.547 286.278 149.409 287.249 148.642 288.458C147.874 289.642 147.521 290.978 147.582 292.465C147.636 293.783 147.981 294.874 148.617 295.737C149.251 296.576 150.095 297.238 151.148 297.723C152.224 298.183 153.439 298.542 154.795 298.798L159.223 299.589C160.24 299.788 160.936 300.06 161.31 300.405C161.684 300.726 161.881 301.138 161.902 301.641C161.92 302.097 161.805 302.498 161.555 302.845C161.305 303.191 160.895 303.46 160.327 303.652C159.782 303.842 159.09 303.955 158.251 303.989C157.172 304.033 156.098 303.921 155.03 303.653C153.986 303.383 153.01 303.003 152.101 302.512C151.215 301.996 150.458 301.402 149.83 300.731L147.014 304.99C147.84 305.797 148.842 306.501 150.019 307.101C151.197 307.701 152.513 308.152 153.966 308.452C155.419 308.729 156.936 308.835 158.519 308.77C160.461 308.69 162.176 308.332 163.663 307.694C165.149 307.033 166.3 306.109 167.116 304.922C167.932 303.712 168.305 302.268 168.236 300.589C168.164 298.838 167.555 297.458 166.409 296.448C165.262 295.439 163.491 294.706 161.094 294.252L157.065 293.517C156 293.32 155.221 293.064 154.727 292.748C154.257 292.407 154.011 291.985 153.991 291.481C153.973 291.049 154.077 290.661 154.303 290.315C154.529 289.97 154.914 289.69 155.458 289.475C156.001 289.261 156.717 289.135 157.604 289.099C159.115 289.037 160.469 289.258 161.667 289.761C162.887 290.239 164.035 290.997 165.111 292.034L167.932 287.919C166.631 286.651 165.116 285.716 163.386 285.115ZM202.736 299.329C202.626 301.043 202.188 302.531 201.42 303.794C200.648 305.033 199.631 306.04 198.371 306.816C197.105 307.569 195.65 308.116 194.005 308.458C191.655 308.945 189.525 308.897 187.614 308.313C185.699 307.706 184.098 306.604 182.811 305.009C181.524 303.413 180.619 301.358 180.097 298.843C179.575 296.329 179.587 294.084 180.133 292.108C180.679 290.131 181.712 288.495 183.232 287.199C184.748 285.88 186.669 284.979 188.995 284.496C190.617 284.159 192.158 284.085 193.618 284.272C195.074 284.435 196.369 284.89 197.504 285.635C198.639 286.379 199.56 287.451 200.267 288.848L195.391 292.103C194.759 290.714 194.011 289.828 193.147 289.443C192.307 289.054 191.322 288.976 190.194 289.211C189.09 289.44 188.183 289.91 187.472 290.621C186.785 291.327 186.331 292.267 186.109 293.441C185.905 294.586 185.969 295.958 186.301 297.556C186.628 299.13 187.103 300.417 187.727 301.415C188.351 302.413 189.118 303.099 190.029 303.474C190.964 303.843 192.031 303.904 193.229 303.655C194.357 303.421 195.245 302.918 195.894 302.146C196.561 301.346 196.902 300.27 196.916 298.919L202.736 299.329ZM257.92 277.301C258.103 275.835 257.894 274.298 257.292 272.689L251.814 274.7C252.355 275.938 252.485 277.059 252.204 278.062C251.929 279.032 251.325 279.855 250.391 280.531C249.4 281.248 248.402 281.63 247.398 281.676C246.414 281.707 245.432 281.396 244.454 280.741C243.476 280.086 242.516 279.107 241.573 277.805C240.616 276.483 239.995 275.258 239.712 274.13C239.434 272.968 239.463 271.924 239.8 270.999C240.157 270.059 240.792 269.258 241.706 268.597C242.639 267.921 243.568 267.589 244.495 267.599C245.441 267.596 246.486 268.099 247.631 269.107L250.746 264.14C249.528 263.154 248.25 262.555 246.909 262.34C245.568 262.125 244.201 262.242 242.806 262.689C241.397 263.116 240.022 263.816 238.68 264.787C236.756 266.181 235.373 267.79 234.531 269.614C233.675 271.419 233.403 273.335 233.714 275.361C234.026 277.388 234.935 279.441 236.441 281.521C237.947 283.601 239.614 285.105 241.442 286.033C243.27 286.962 245.182 287.311 247.178 287.08C249.16 286.83 251.123 286.001 253.067 284.594C254.428 283.608 255.531 282.513 256.377 281.308C257.209 280.083 257.723 278.748 257.92 277.301ZM265.6 268.228L274.783 260.634L277.834 264.324L263.879 275.864L248.737 257.554L253.509 253.608L265.6 268.228ZM261.744 247.224L280.701 261.548L292.138 246.411L288.318 243.524L280.613 253.721L276.736 250.791L282.639 242.979L279.049 240.266L273.145 248.078L269.297 245.17L276.719 235.347L272.899 232.461L261.744 247.224ZM266 169.5C266 222.795 222.795 266 169.5 266C116.205 266 73 222.795 73 169.5C73 116.205 116.205 73 169.5 73C222.795 73 266 116.205 266 169.5ZM82.7585 157.927C87.9395 118.719 119.082 87.6985 158.349 82.7039L158.51 85.3081C161.144 127.992 197.476 175.612 256.18 173.497L256.911 173.47C254.836 219.953 216.494 257 169.5 257C121.175 257 82 217.825 82 169.5C82 168.966 82.0048 168.432 82.0143 167.9L84.7015 168.061C130.983 170.829 163.5 207.567 163.5 251.5V256.5H173.5V251.5C173.5 202.433 137.017 161.171 85.2985 158.079L82.7585 157.927ZM169.5 82C215.797 82 253.697 117.957 256.795 163.468L255.82 163.503C203.524 165.388 170.856 123.008 168.49 84.6919L168.325 82.0077C168.716 82.0026 169.108 82 169.5 82ZM154.185 43.9403L151.574 28.5199L144.79 29.6687L147.422 45.2074C147.738 47.0742 147.567 48.5367 146.907 49.5949C146.274 50.6488 145.143 51.3137 143.513 51.5898C141.909 51.8614 140.622 51.6061 139.651 50.8239C138.706 50.0373 138.076 48.7106 137.76 46.8438L135.128 31.3051L128.305 32.4606L130.917 47.881C131.54 51.5619 132.994 54.1556 135.277 55.6621C137.556 57.1423 140.602 57.5596 144.415 56.914C148.253 56.2638 150.992 54.867 152.63 52.7233C154.29 50.5489 154.809 47.6212 154.185 43.9403ZM157.916 55.0109L158.017 28.611L170.857 28.6602C174.11 28.6993 176.508 29.3352 178.05 30.5677C179.592 31.7737 180.359 33.5233 180.35 35.8166C180.344 37.3099 179.899 38.6016 179.015 39.6915C178.131 40.7548 176.782 41.4296 174.967 41.716L174.967 41.756C176.993 42.0305 178.497 42.7429 179.479 43.8933C180.488 45.0172 180.989 46.3791 180.983 47.9791C180.975 50.2458 180.168 52.0027 178.563 53.2499C176.958 54.4704 174.556 55.0746 171.356 55.0623L157.916 55.0109ZM164.575 50.1963L170.215 50.2179C171.468 50.2227 172.402 49.9729 173.017 49.4686C173.633 48.9643 173.942 48.2322 173.946 47.2722C173.949 46.3388 173.645 45.631 173.034 45.1487C172.423 44.6396 171.49 44.3827 170.237 44.3779L164.597 44.3564L164.575 50.1963ZM164.616 39.4364L169.616 39.4555C172.069 39.4649 173.299 38.5096 173.307 36.5896C173.314 34.6697 172.091 33.705 169.638 33.6956L164.638 33.6764L164.616 39.4364ZM202.748 55.1913C204.101 54.2616 205.223 52.9533 206.116 51.2662L200.403 48.1995C199.774 49.5624 198.939 50.4974 197.898 51.0044C196.889 51.4913 195.76 51.5964 194.51 51.3198C193.182 51.0259 192.129 50.4788 191.35 49.6782C190.597 48.8835 190.132 47.8383 189.955 46.5427C189.777 45.247 189.881 43.727 190.267 41.9825C190.659 40.212 191.219 38.7928 191.947 37.7248C192.707 36.6366 193.595 35.8911 194.613 35.4881C195.657 35.0909 196.791 35.0278 198.014 35.2986C199.264 35.5751 200.226 36.1022 200.901 36.8796C201.602 37.6629 201.956 38.9019 201.963 40.5969L208.387 39.5196C208.308 37.7813 207.863 36.2762 207.052 35.0043C206.241 33.7323 205.135 32.6819 203.734 31.853C202.339 30.9981 200.743 30.3719 198.947 29.9743C196.369 29.4038 194.012 29.4421 191.875 30.089C189.744 30.7098 187.952 31.8973 186.498 33.6513C185.045 35.4054 184.01 37.6754 183.394 40.4614C182.777 43.2473 182.758 45.742 183.335 47.9455C183.913 50.149 185.034 51.9948 186.698 53.483C188.368 54.9451 190.505 55.9642 193.109 56.5404C194.931 56.9437 196.655 57.0521 198.281 56.8656C199.912 56.653 201.401 56.0949 202.748 55.1913Z" fill="#15997E"/>
</svg>
