<svg width="435" height="406" viewBox="0 0 435 406" fill="none" xmlns="http://www.w3.org/2000/svg">
<path d="M60.9998 311.515L62.949 304.273L74.6666 306.909L76.0231 319.183L73.944 326.908C64.4814 320.57 62.4797 315.82 60.9998 311.515Z" fill="#808080"/>
<path fill-rule="evenodd" clip-rule="evenodd" d="M243.82 106.408C219.733 120.782 204.697 143.57 200.965 165.9L200.953 165.897C192.038 199.446 182.409 229.368 157.175 250.451L162.304 256.591C162.542 256.392 162.778 256.193 163.013 255.993L165.378 258.787C176.567 249.318 195.915 243.34 216.241 240.014C235.06 236.935 254.012 236.236 266.545 236.82C285.572 238.376 306.397 234.752 326.042 225.475C369.345 205.026 384.623 151.119 361.744 121.686C338.864 92.2537 284.955 81.8607 243.82 106.408ZM236.954 229.484C226.527 224.835 217.548 218.123 210.826 209.476C206.607 204.049 203.667 197.952 201.936 191.465C195.916 210.297 188.201 228.082 175.646 243.2C187.283 237.871 201.26 234.359 214.949 232.119C222.386 230.902 229.845 230.045 236.954 229.484ZM248.923 111.977C212.039 133.988 198.823 178.004 219.339 204.395C239.854 230.787 283.821 237.076 322.649 218.74C361.478 200.404 375.177 152.068 354.661 125.677C334.146 99.2856 285.808 89.9664 248.923 111.977Z" fill="#808080"/>
<path d="M169.404 258.88L171.484 251.155L76.1531 318.7L73.944 326.908L169.404 258.88Z" fill="#808080"/>
<path fill-rule="evenodd" clip-rule="evenodd" d="M199.079 160.215C202.811 137.885 217.847 115.096 241.934 100.722C283.069 76.1752 336.978 86.5682 359.858 116.001C382.737 145.433 367.459 199.34 324.157 219.789C304.511 229.066 283.687 232.691 264.659 231.134C252.127 230.55 233.174 231.249 214.355 234.329C197.322 237.116 180.977 241.765 169.543 248.771L171.339 251.28L75.8742 319.736C72.4755 313.126 69.3447 307.913 62.9301 304.343L160.239 235.777L162.148 238.444C182.369 217.895 191.009 190.535 199.068 160.212L199.079 160.215ZM208.94 203.791C215.662 212.438 224.641 219.15 235.069 223.799C227.959 224.359 220.5 225.217 213.063 226.434C199.374 228.674 185.397 232.185 173.761 237.514C186.315 222.396 194.03 204.611 200.05 185.779C201.781 192.267 204.721 198.363 208.94 203.791ZM217.453 198.71C196.938 172.319 210.153 128.302 247.037 106.292C283.922 84.281 332.261 93.6001 352.776 119.991C373.291 146.383 359.592 194.719 320.764 213.055C281.936 231.391 237.968 225.101 217.453 198.71Z" fill="#808080"/>
<path d="M52.2885 306.759L54.2377 299.517L65.9553 302.152L67.3119 314.427L65.2327 322.152C55.7702 315.813 53.7684 311.063 52.2885 306.759Z" fill="#7898CA"/>
<path fill-rule="evenodd" clip-rule="evenodd" d="M235.109 101.651C211.022 116.025 195.986 138.814 192.253 161.144L192.242 161.141C183.327 194.689 173.698 224.612 148.464 245.695L153.593 251.834C153.831 251.636 154.067 251.437 154.302 251.237L156.667 254.031C167.856 244.562 187.204 238.584 207.529 235.258C226.35 232.178 245.303 231.479 257.836 232.063C276.863 233.62 297.687 229.995 317.331 220.718C360.634 200.269 375.912 146.363 353.033 116.93C330.153 87.4975 276.244 77.1043 235.109 101.651ZM228.244 224.728C217.816 220.079 208.837 213.367 202.115 204.72C197.896 199.292 194.956 193.196 193.225 186.709C187.205 205.541 179.49 223.325 166.935 238.443C178.572 233.114 192.549 229.603 206.238 227.363C213.674 226.146 221.134 225.288 228.244 224.728ZM240.212 107.221C203.328 129.231 190.112 173.248 210.628 199.639C231.143 226.03 275.11 232.32 313.938 213.984C352.766 195.648 366.466 147.312 345.95 120.921C325.435 94.5291 277.097 85.2099 240.212 107.221Z" fill="#0F5748"/>
<path d="M160.693 254.124L162.772 246.399L67.4419 313.944L65.2327 322.152L160.693 254.124Z" fill="#254069"/>
<path fill-rule="evenodd" clip-rule="evenodd" d="M233.223 95.9659C209.136 110.34 194.1 133.128 190.367 155.458L190.356 155.455C181.441 189.004 171.812 218.927 146.578 240.009L151.707 246.149C151.945 245.95 152.181 245.751 152.416 245.551L154.781 248.345C165.97 238.876 185.318 232.898 205.643 229.572C224.463 226.493 243.416 225.794 255.948 226.378C274.976 227.934 295.8 224.31 315.445 215.033C358.748 194.584 374.026 140.677 351.146 111.244C328.267 81.8118 274.358 71.4188 233.223 95.9659ZM226.357 219.042C215.93 214.393 206.951 207.681 200.229 199.035C196.01 193.607 193.07 187.511 191.339 181.023C185.319 199.855 177.604 217.64 165.049 232.758C176.686 227.429 190.663 223.917 204.352 221.677C211.788 220.46 219.248 219.603 226.357 219.042ZM238.326 101.535C201.442 123.546 188.226 167.562 208.742 193.954C229.257 220.345 273.224 226.634 312.052 208.299C350.88 189.963 364.58 141.626 344.064 115.235C323.549 88.8437 275.211 79.5246 238.326 101.535Z" fill="#15997E"/>
<path d="M162.628 246.523L67.163 314.979C63.7643 308.369 60.6335 303.157 54.2188 299.586L151.528 231.02L162.628 246.523Z" fill="#3E69AD"/>
<mask id="mask0_55_1967" style="mask-type:alpha" maskUnits="userSpaceOnUse" x="200" y="91" width="154" height="129">
<path d="M209.766 195.271C189.698 169.456 203.062 126.06 239.64 104.143C276.217 82.2259 323.879 91.0473 343.947 116.863C364.014 142.678 350.142 190.327 311.672 208.643C273.202 226.959 229.833 221.087 209.766 195.271Z" fill="#1E1E1E"/>
</mask>
<g mask="url(#mask0_55_1967)">
<line x1="211.159" y1="-46.994" x2="445.947" y2="283.006" stroke="#C3C3C3"/>
<line x1="203.826" y1="-41.7767" x2="438.614" y2="288.223" stroke="#C3C3C3"/>
<line x1="196.493" y1="-36.5589" x2="431.28" y2="293.441" stroke="#C3C3C3"/>
<line x1="189.159" y1="-31.3416" x2="423.947" y2="298.658" stroke="#C3C3C3"/>
<line x1="181.826" y1="-26.1238" x2="416.614" y2="303.876" stroke="#C3C3C3"/>
<line x1="174.493" y1="-20.9066" x2="409.28" y2="309.093" stroke="#C3C3C3"/>
<line x1="167.159" y1="-15.6888" x2="401.947" y2="314.311" stroke="#C3C3C3"/>
<line x1="159.826" y1="-10.4715" x2="394.614" y2="319.528" stroke="#C3C3C3"/>
<line x1="152.493" y1="-5.25373" x2="387.28" y2="324.746" stroke="#C3C3C3"/>
<line x1="145.159" y1="-0.0364432" x2="379.947" y2="329.963" stroke="#C3C3C3"/>
<line x1="137.826" y1="5.18084" x2="372.614" y2="335.181" stroke="#C3C3C3"/>
<line x1="130.493" y1="10.3986" x2="365.28" y2="340.398" stroke="#C3C3C3"/>
<line x1="123.159" y1="15.6159" x2="357.947" y2="345.616" stroke="#C3C3C3"/>
<line x1="115.826" y1="20.8337" x2="350.614" y2="350.833" stroke="#C3C3C3"/>
<line x1="108.493" y1="26.051" x2="343.28" y2="356.051" stroke="#C3C3C3"/>
<line x1="88.1394" y1="172.302" x2="453.484" y2="-2.47875" stroke="#C3C3C3"/>
<line x1="92.0235" y1="180.421" x2="457.368" y2="5.6399" stroke="#C3C3C3"/>
<line x1="95.9075" y1="188.54" x2="461.252" y2="13.7586" stroke="#C3C3C3"/>
<line x1="99.7915" y1="196.659" x2="465.136" y2="21.8777" stroke="#C3C3C3"/>
<line x1="103.676" y1="204.777" x2="469.02" y2="29.9963" stroke="#C3C3C3"/>
<line x1="107.56" y1="212.896" x2="472.904" y2="38.115" stroke="#C3C3C3"/>
<line x1="111.444" y1="221.015" x2="476.788" y2="46.2337" stroke="#C3C3C3"/>
<line x1="115.328" y1="229.134" x2="480.672" y2="54.3528" stroke="#C3C3C3"/>
<line x1="119.212" y1="237.253" x2="484.556" y2="62.4714" stroke="#C3C3C3"/>
<line x1="123.096" y1="245.371" x2="488.44" y2="70.5901" stroke="#C3C3C3"/>
<line x1="126.98" y1="253.49" x2="492.324" y2="78.7087" stroke="#C3C3C3"/>
<line x1="130.864" y1="261.609" x2="496.208" y2="86.8279" stroke="#C3C3C3"/>
<line x1="134.748" y1="269.728" x2="500.092" y2="94.9465" stroke="#C3C3C3"/>
<line x1="138.632" y1="277.846" x2="503.976" y2="103.065" stroke="#C3C3C3"/>
<line x1="142.516" y1="285.965" x2="507.86" y2="111.184" stroke="#C3C3C3"/>
</g>
</svg>
